<?xml version="1.0" encoding="UTF-8" standalone="no"?>
<!DOCTYPE svg PUBLIC "-//W3C//DTD SVG 1.1//EN"
 "http://www.w3.org/Graphics/SVG/1.1/DTD/svg11.dtd">
<!-- Generated by graphviz version 2.38.0 (20140413.2041)
 -->
<!-- Title: G Pages: 1 -->
<svg width="274pt" height="222pt"
 viewBox="0.00 0.00 274.00 222.00" xmlns="http://www.w3.org/2000/svg" xmlns:xlink="http://www.w3.org/1999/xlink">
<g id="graph0" class="graph" transform="scale(1 1) rotate(0) translate(4 218)">
<title>G</title>
<polygon fill="white" stroke="none" points="-4,4 -4,-218 270,-218 270,4 -4,4"/>
<g id="clust1" class="cluster"><title>cluster_Global</title>
<path fill="none" stroke="gray" d="M20,-8C20,-8 246,-8 246,-8 252,-8 258,-14 258,-20 258,-20 258,-194 258,-194 258,-200 252,-206 246,-206 246,-206 20,-206 20,-206 14,-206 8,-200 8,-194 8,-194 8,-20 8,-20 8,-14 14,-8 20,-8"/>
<text text-anchor="middle" x="133" y="-193.2" font-family="Times New Roman,serif" font-size="11.00" fill="gray">Global</text>
</g>
<g id="clust3" class="cluster"><title>cluster_\App</title>
<path fill="none" stroke="gray" d="M176,-16C176,-16 238,-16 238,-16 244,-16 250,-22 250,-28 250,-28 250,-166 250,-166 250,-172 244,-178 238,-178 238,-178 176,-178 176,-178 170,-178 164,-172 164,-166 164,-166 164,-28 164,-28 164,-22 170,-16 176,-16"/>
<text text-anchor="middle" x="207" y="-165.2" font-family="Times New Roman,serif" font-size="11.00" fill="gray">App</text>
</g>
<g id="clust4" class="cluster"><title>cluster_\App\Controllers</title>
<path fill="none" stroke="gray" d="M184,-24C184,-24 230,-24 230,-24 236,-24 242,-30 242,-36 242,-36 242,-138 242,-138 242,-144 236,-150 230,-150 230,-150 184,-150 184,-150 178,-150 172,-144 172,-138 172,-138 172,-36 172,-36 172,-30 178,-24 184,-24"/>
<text text-anchor="middle" x="207" y="-137.2" font-family="Times New Roman,serif" font-size="11.00" fill="gray">Controllers</text>
</g>
<g id="clust2" class="cluster"><title>cluster_\Core</title>
<path fill="none" stroke="gray" d="M28,-20C28,-20 104,-20 104,-20 110,-20 116,-26 116,-32 116,-32 116,-134 116,-134 116,-140 110,-146 104,-146 104,-146 28,-146 28,-146 22,-146 16,-140 16,-134 16,-134 16,-32 16,-32 16,-26 22,-20 28,-20"/>
<text text-anchor="middle" x="66" y="-133.2" font-family="Times New Roman,serif" font-size="11.00" fill="gray">Core</text>
</g>
<!-- \\Core\\Controller -->
<g id="node1" class="node"><title>\\Core\\Controller</title>
<polygon fill="none" stroke="black" points="108,-118 24,-118 24,-82 108,-82 108,-118"/>
<text text-anchor="start" x="32" y="-103.2" font-family="Courier,monospace" font-size="11.00">«abstract»</text>
<text text-anchor="start" x="32" y="-91.2" font-family="Courier,monospace" font-size="11.00">Controller</text>
</g>
<!-- \\Core\\Router -->
<g id="node2" class="node"><title>\\Core\\Router</title>
<polygon fill="none" stroke="black" points="94.5,-64 37.5,-64 37.5,-28 94.5,-28 94.5,-64"/>
<text text-anchor="middle" x="66" y="-43.2" font-family="Courier,monospace" font-size="11.00">Router</text>
</g>
<!-- \\App\\Controllers\\Posts -->
<g id="node3" class="node"><title>\\App\\Controllers\\Posts</title>
<polygon fill="none" stroke="black" points="234,-122 180,-122 180,-86 234,-86 234,-122"/>
<text text-anchor="middle" x="207" y="-101.2" font-family="Courier,monospace" font-size="11.00">Posts</text>
</g>
<!-- \\App\\Controllers\\Posts&#45;&gt;\\Core\\Controller -->
<g id="edge1" class="edge"><title>\\App\\Controllers\\Posts&#45;&gt;\\Core\\Controller</title>
<path fill="none" stroke="black" d="M179.855,-103.248C162.486,-102.748 139.102,-102.075 118.125,-101.471"/>
<polygon fill="none" stroke="black" points="118.153,-97.9707 108.057,-101.181 117.952,-104.968 118.153,-97.9707"/>
</g>
<!-- \\App\\Controllers\\Home -->
<g id="node4" class="node"><title>\\App\\Controllers\\Home</title>
<polygon fill="none" stroke="black" points="234,-68 180,-68 180,-32 234,-32 234,-68"/>
<text text-anchor="middle" x="207" y="-47.2" font-family="Courier,monospace" font-size="11.00">Home</text>
</g>
<!-- \\App\\Controllers\\Home&#45;&gt;\\Core\\Controller -->
<g id="edge2" class="edge"><title>\\App\\Controllers\\Home&#45;&gt;\\Core\\Controller</title>
<path fill="none" stroke="black" d="M179.855,-59.4046C162.328,-65.7092 138.677,-74.217 117.553,-81.8154"/>
<polygon fill="none" stroke="black" points="116.282,-78.5531 108.057,-85.2314 118.651,-85.1399 116.282,-78.5531"/>
</g>
</g>
</svg>
