<?xml version="1.0" encoding="UTF-8" standalone="no"?>
<!DOCTYPE svg PUBLIC "-//W3C//DTD SVG 1.1//EN"
 "http://www.w3.org/Graphics/SVG/1.1/DTD/svg11.dtd">
<!-- Generated by graphviz version 2.38.0 (20140413.2041)
 -->
<!-- Title: G Pages: 1 -->
<svg width="126pt" height="248pt"
 viewBox="0.00 0.00 126.00 248.00" xmlns="http://www.w3.org/2000/svg" xmlns:xlink="http://www.w3.org/1999/xlink">
<g id="graph0" class="graph" transform="scale(1 1) rotate(0) translate(4 244)">
<title>G</title>
<polygon fill="white" stroke="none" points="-4,4 -4,-244 122,-244 122,4 -4,4"/>
<g id="clust1" class="cluster"><title>cluster_Global</title>
<path fill="none" stroke="gray" d="M20,-8C20,-8 98,-8 98,-8 104,-8 110,-14 110,-20 110,-20 110,-220 110,-220 110,-226 104,-232 98,-232 98,-232 20,-232 20,-232 14,-232 8,-226 8,-220 8,-220 8,-20 8,-20 8,-14 14,-8 20,-8"/>
<text text-anchor="middle" x="59" y="-219.2" font-family="Times New Roman,serif" font-size="11.00" fill="gray">Global</text>
</g>
<g id="clust3" class="cluster"><title>cluster_\App</title>
<path fill="none" stroke="gray" d="M28,-96C28,-96 90,-96 90,-96 96,-96 102,-102 102,-108 102,-108 102,-192 102,-192 102,-198 96,-204 90,-204 90,-204 28,-204 28,-204 22,-204 16,-198 16,-192 16,-192 16,-108 16,-108 16,-102 22,-96 28,-96"/>
<text text-anchor="middle" x="59" y="-191.2" font-family="Times New Roman,serif" font-size="11.00" fill="gray">App</text>
</g>
<g id="clust4" class="cluster"><title>cluster_\App\Controllers</title>
<path fill="none" stroke="gray" d="M36,-104C36,-104 82,-104 82,-104 88,-104 94,-110 94,-116 94,-116 94,-164 94,-164 94,-170 88,-176 82,-176 82,-176 36,-176 36,-176 30,-176 24,-170 24,-164 24,-164 24,-116 24,-116 24,-110 30,-104 36,-104"/>
<text text-anchor="middle" x="59" y="-163.2" font-family="Times New Roman,serif" font-size="11.00" fill="gray">Controllers</text>
</g>
<g id="clust2" class="cluster"><title>cluster_\Core</title>
<path fill="none" stroke="gray" d="M34.5,-16C34.5,-16 83.5,-16 83.5,-16 89.5,-16 95.5,-22 95.5,-28 95.5,-28 95.5,-76 95.5,-76 95.5,-82 89.5,-88 83.5,-88 83.5,-88 34.5,-88 34.5,-88 28.5,-88 22.5,-82 22.5,-76 22.5,-76 22.5,-28 22.5,-28 22.5,-22 28.5,-16 34.5,-16"/>
<text text-anchor="middle" x="59" y="-75.2" font-family="Times New Roman,serif" font-size="11.00" fill="gray">Core</text>
</g>
<!-- \\Core\\Router -->
<g id="node1" class="node"><title>\\Core\\Router</title>
<polygon fill="none" stroke="black" points="87.5,-60 30.5,-60 30.5,-24 87.5,-24 87.5,-60"/>
<text text-anchor="middle" x="59" y="-39.2" font-family="Courier,monospace" font-size="11.00">Router</text>
</g>
<!-- \\App\\Controllers\\Posts -->
<g id="node2" class="node"><title>\\App\\Controllers\\Posts</title>
<polygon fill="none" stroke="black" points="86,-148 32,-148 32,-112 86,-112 86,-148"/>
<text text-anchor="middle" x="59" y="-127.2" font-family="Courier,monospace" font-size="11.00">Posts</text>
</g>
</g>
</svg>
